:version 1.10
:name ASF
:units
  mass 1
  length 1
  angle deg
:documentation
  ASF file generated by Kaydara
:root
  axis xyz
  order  tx ty tz rx ry rz
  position 0 0 0
  orientation 0 0 0
:bonedata
  begin
    id 1
    name lfemurDummy
    direction 0.61522 -0.761478 0.204097
    length 5.68318
    axis 0 -0 0 xyz
  end
  begin
    id 2
    name lfemur
    direction 0.34202 -0.939693 -5.84747e-008
    length 16.9147
    axis 0 -0 20 xyz
    dof rx ry rz
    limits( -inf , inf )
( -inf , inf )
( -inf , inf )

  end
  begin
    id 3
    name ltibia
    direction 0.34202 -0.939693 1.20839e-009
    length 18.0532
    axis 0 -0 20 xyz
    dof rz ry rx
    limits( -inf , inf )
( -inf , inf )
( -inf , inf )

  end
  begin
    id 4
    name lfoot
    direction 0.0841971 -0.23133 0.969225
    length 5.23822
    axis -90 7.62852e-016 20 xyz
    dof ry rx rz
    limits( -inf , inf )
( -inf , inf )
( -inf , inf )

  end
  begin
    id 5
    name ltoes
    direction 0 0 0
    length 0
    axis 0 0 0 xyz
    dof rz ry rx
    limits( -inf , inf )
( -inf , inf )
( -inf , inf )

  end
  begin
    id 6
    name rfemurDummy
    direction -0.625247 -0.75382 0.202044
    length 5.74091
    axis 0 -0 0 xyz
  end
  begin
    id 7
    name rfemur
    direction -0.34202 -0.939693 -1.47013e-008
    length 16.4922
    axis 0 -0 -20 xyz
    dof rx ry rz
    limits( -inf , inf )
( -inf , inf )
( -inf , inf )

  end
  begin
    id 8
    name rtibia
    direction -0.34202 -0.939693 -7.74345e-010
    length 18.2421
    axis 0 -0 -20 xyz
    dof rz ry rx
    limits( -inf , inf )
( -inf , inf )
( -inf , inf )

  end
  begin
    id 9
    name rfoot
    direction -0.124331 -0.341598 0.931586
    length 5.45787
    axis -90 -7.62852e-016 -20 xyz
    dof ry rx rz
    limits( -inf , inf )
( -inf , inf )
( -inf , inf )

  end
  begin
    id 10
    name rtoes
    direction 0 0 0
    length 0
    axis 0 0 0 xyz
    dof rz ry rx
    limits( -inf , inf )
( -inf , inf )
( -inf , inf )

  end
  begin
    id 11
    name lowerbackDummy
    direction 0 0 0
    length 0
    axis 0 -0 0 xyz
  end
  begin
    id 12
    name lowerback
    direction -0.0218484 0.994884 -0.0986304
    length 4.45607
    axis 0 -0 0 xyz
    dof rx ry rz
    limits( -inf , inf )
( -inf , inf )
( -inf , inf )

  end
  begin
    id 13
    name upperback
    direction -0.00973057 0.999717 -0.0217111
    length 4.47449
    axis 0 -0 0 xyz
    dof rx ry rz
    limits( -inf , inf )
( -inf , inf )
( -inf , inf )

  end
  begin
    id 14
    name thorax
    direction -0.000928171 0.999699 0.0245198
    length 4.50973
    axis 0 -0 0 xyz
    dof rx ry rz
    limits( -inf , inf )
( -inf , inf )
( -inf , inf )

  end
  begin
    id 15
    name rclavicle
    direction -0.9009 0.425937 -0.0834055
    length 7.28587
    axis 0 -0 0 xyz
    dof rx ry rz
    limits( -inf , inf )
( -inf , inf )
( -inf , inf )

  end
  begin
    id 16
    name rhumerus
    direction -1 -2.23604e-007 -1.42637e-007
    length 13.5704
    axis 180 30 90 xyz
    dof rx ry rz
    limits( -inf , inf )
( -inf , inf )
( -inf , inf )

  end
  begin
    id 17
    name rradius
    direction -1 5.68281e-008 -4.4952e-007
    length 8.06782
    axis 180 30 90 xyz
    dof rz ry rx
    limits( -inf , inf )
( -inf , inf )
( -inf , inf )

  end
  begin
    id 18
    name rwrist
    direction -1 1.51393e-007 1.38143e-007
    length 4.03391
    axis -90 -90 0 xyz
    dof rz rx ry
    limits( -inf , inf )
( -inf , inf )
( -inf , inf )

  end
  begin
    id 19
    name rthumb
    direction 0 0 0
    length 0
    axis 0 0 0 xyz
    dof ry rx rz
    limits( -inf , inf )
( -inf , inf )
( -inf , inf )

  end
  begin
    id 20
    name rhand
    direction -1 -3.34077e-007 -5.59631e-007
    length 1.29744
    axis -90 -90 0 xyz
    dof ry rx rz
    limits( -inf , inf )
( -inf , inf )
( -inf , inf )

  end
  begin
    id 21
    name rfingers
    direction 0 0 0
    length 0
    axis 0 0 0 xyz
    dof rz ry rx
    limits( -inf , inf )
( -inf , inf )
( -inf , inf )

  end
  begin
    id 22
    name lclavicle
    direction 0.940017 0.332249 -0.0773232
    length 8.29589
    axis 0 -0 0 xyz
    dof rx ry rz
    limits( -inf , inf )
( -inf , inf )
( -inf , inf )

  end
  begin
    id 23
    name lhumerus
    direction 1 7.41158e-008 -1.44768e-008
    length 12.0042
    axis 180 -30 -90 xyz
    dof rx ry rz
    limits( -inf , inf )
( -inf , inf )
( -inf , inf )

  end
  begin
    id 24
    name lradius
    direction 1 -1.32972e-007 3.10821e-007
    length 8.1902
    axis 180 -30 -90 xyz
    dof rz ry rx
    limits( -inf , inf )
( -inf , inf )
( -inf , inf )

  end
  begin
    id 25
    name lwrist
    direction 1 3.08957e-007 4.01394e-007
    length 4.09509
    axis -90 90 0 xyz
    dof rz rx ry
    limits( -inf , inf )
( -inf , inf )
( -inf , inf )

  end
  begin
    id 26
    name lthumb
    direction 0 0 0
    length 0
    axis 0 0 0 xyz
    dof ry rx rz
    limits( -inf , inf )
( -inf , inf )
( -inf , inf )

  end
  begin
    id 27
    name lhand
    direction 1 -1.64125e-007 -6.99514e-007
    length 1.37229
    axis -90 90 0 xyz
    dof ry rx rz
    limits( -inf , inf )
( -inf , inf )
( -inf , inf )

  end
  begin
    id 28
    name lfingers
    direction 0 0 0
    length 0
    axis 0 0 0 xyz
    dof rz ry rx
    limits( -inf , inf )
( -inf , inf )
( -inf , inf )

  end
  begin
    id 29
    name lowerneck
    direction -0.030798 0.998024 0.0547665
    length 3.93918
    axis 0 -0 0 xyz
    dof rx ry rz
    limits( -inf , inf )
( -inf , inf )
( -inf , inf )

  end
  begin
    id 30
    name upperneck
    direction 0.0531588 0.996611 -0.0627736
    length 3.95491
    axis 0 -0 0 xyz
    dof rx ry rz
    limits( -inf , inf )
( -inf , inf )
( -inf , inf )

  end
  begin
    id 31
    name head
    direction 0 0 0
    length 0
    axis 0 0 0 xyz
    dof rx ry rz
    limits( -inf , inf )
( -inf , inf )
( -inf , inf )

  end
:hierarchy
  begin
    root lfemurDummy rfemurDummy lowerbackDummy
    lfemurDummy lfemur
    lfemur ltibia
    ltibia lfoot
    lfoot ltoes
    rfemurDummy rfemur
    rfemur rtibia
    rtibia rfoot
    rfoot rtoes
    lowerbackDummy lowerback
    lowerback upperback
    upperback thorax
    thorax rclavicle lclavicle lowerneck
    rclavicle rhumerus
    rhumerus rradius
    rradius rwrist
    rwrist rthumb rhand
    rhand rfingers
    lclavicle lhumerus
    lhumerus lradius
    lradius lwrist
    lwrist lthumb lhand
    lhand lfingers
    lowerneck upperneck
    upperneck head
  end

:SAMPLES-PER-SECOND 30
:FULLY-SPECIFIED
:DEGREES
105
root  9.439755237 39.48933459 -2.607466668 -155.2489929 -73.95800018 150.098999
lowerback  10.05280018 2.29102993 -1.744050026
upperback  2.593869925 2.76402998 -0.1709959954
thorax  -3.006520033 1.341879964 0.4593960047
lowerneck  -3.773689985 6.75153017 0.2416149974
upperneck  13.04699993 9.425109863 -3.912339926
head  4.737170219 4.340139866 -0.7469819784
lclavicle  0 -9.442270133e-015 7.951389973e-016
lhumerus  -2.807179928 -7.544809818 78.14620209
lradius  2.961383545e-031 -1.92329185e-031 146.9980011
lwrist  -7.062250077e-031 -1.765562519e-031 3.156860113
lhand  -1.496451383e-031 -27.76390076 20.11240005
lfingers  90 7.125020027 -90
lthumb  89.89689403 5.08795885 91.16245106
rclavicle  0 -9.442270133e-015 7.951389973e-016
rhumerus  14.03439999 20.30220032 -74.80970001
rradius  -2.693316136e-031 2.283613853e-031 139.7059937
rwrist  7.062250077e-031 -1.765562519e-031 -6.540679932
rhand  -7.920061211e-032 -33.2840004 9.303460121
rfingers  -90 -7.125020027 -90
rthumb  -92.93752616 -24.25625642 -97.11982154
rfemur  -8.848529816 15.19989967 1.963590026
rtibia  -0 0 49.75640106
rfoot  -0 -22.51709938 -18.18569946
rtoes  5.373923086 19.29304026 -105.8922705
lfemur  -9.355609894 4.996679783 -15.45409966
ltibia  -0 0 39.68460083
lfoot  -0 -15.39150047 18.23830032
ltoes  -4.250644065 -19.5611806 -102.515957
106
root  9.284666767 39.47333388 -2.356377737 -156.5549927 -73.50099945 151.4630127
lowerback  10.29160023 2.273560047 -1.269279957
upperback  2.469909906 2.795380116 0.02870520018
thorax  -3.255019903 1.35777998 0.3836790025
lowerneck  -3.797600031 6.845389843 0.1433269978
upperneck  12.98379993 9.601149559 -4.264550209
head  4.739069939 4.401000023 -0.8281350136
lclavicle  0 -9.442270133e-015 7.951389973e-016
lhumerus  -2.672930002 -7.571010113 77.62709808
lradius  2.962692051e-031 -1.921275579e-031 147.0370026
lwrist  -7.062250077e-031 -3.531125038e-031 2.987620115
lhand  -1.496451383e-031 -27.76390076 20.11240005
lfingers  90 7.125020027 -90
lthumb  89.89689403 5.08795885 91.16245106
rclavicle  0 -9.442270133e-015 7.951389973e-016
rhumerus  13.13510036 19.83090019 -74.42739868
rradius  -2.685448847e-031 2.292860338e-031 139.5090027
rwrist  7.062250077e-031 -1.765562519e-031 -6.434490204
rhand  -7.920061211e-032 -33.2840004 9.303460121
rfingers  -90 -7.125020027 -90
rthumb  -92.93752616 -24.25625642 -97.11982154
rfemur  -8.798999786 15.52350044 1.43622005
rtibia  -0 0 49.31380081
rfoot  -0 -21.89710045 -17.42329979
rtoes  5.373923086 19.29304026 -105.8922705
lfemur  -9.608949661 6.037650108 -15.45259953
ltibia  -0 0 40.99089813
lfoot  -0 -15.52700043 16.98660088
ltoes  -4.250644065 -19.5611806 -102.515957
107
root  9.159244327 39.4824441 -2.099839909 -157.75 -73.05500031 152.7170105
lowerback  10.05220032 2.195070028 -0.4837389886
upperback  2.824820042 2.761719942 -0.02706040069
thorax  -2.714250088 1.330989957 -0.09101759642
lowerneck  -4.139500141 6.978710175 0.4120959938
upperneck  12.58759975 9.819379807 -4.748710155
head  4.717740059 4.50206995 -0.9964839816
lclavicle  0 -9.442270133e-015 7.951389973e-016
lhumerus  -1.643020034 -7.479579926 76.59269714
lradius  2.961819866e-031 -1.922619858e-031 147.0110016
lwrist  -3.531125038e-031 -0 2.7996099
lhand  -1.496451383e-031 -27.76390076 20.11240005
lfingers  90 7.125020027 -90
lthumb  89.89689403 5.08795885 91.16245106
rclavicle  0 -9.442270133e-015 7.951389973e-016
rhumerus  12.91720009 19.11199951 -74.2173996
rradius  -2.674131394e-031 2.306049723e-031 139.227005
rwrist  0 -1.765562519e-031 -6.462639809
rhand  -7.920061211e-032 -33.2840004 9.303460121
rfingers  -90 -7.125020027 -90
rthumb  -92.93752616 -24.25625642 -97.11982154
rfemur  -8.986539841 15.95030022 0.900669992
rtibia  -0 0 49.1169014
rfoot  -0 -21.10589981 -16.45870018
rtoes  5.373923086 19.29304026 -105.8922705
lfemur  -10.18080044 6.979060173 -15.33409977
ltibia  -0 0 42.55490112
lfoot  -0 -15.43959999 15.62020016
ltoes  -4.250644065 -19.5611806 -102.515957
108
root  9.047333274 39.51666524 -1.83090882 -159.5010071 -72.52500153 154.6610107
lowerback  10.44139957 2.210530043 0.1083829999
upperback  2.77335 2.850059986 0.2696799934
thorax  -2.968219995 1.371019959 -0.1435649991
lowerneck  -4.397999763 7.126599789 0.2074500024
upperneck  12.57190037 10.08230019 -5.07227993
head  4.771120071 4.597430229 -1.036730051
lclavicle  0 -9.442270133e-015 7.951389973e-016
lhumerus  -1.239359975 -7.401329994 76.04489899
lradius  2.966174688e-031 -1.915894506e-031 147.1410065
lwrist  -3.531125038e-031 -0 2.668080091
lhand  -1.496451383e-031 -27.76390076 20.11240005
lfingers  90 7.125020027 -90
lthumb  89.89689403 5.08795885 91.16245106
rclavicle  0 -9.442270133e-015 7.951389973e-016
rhumerus  11.98410034 18.57089996 -73.62519836
rradius  -2.668932696e-031 2.31206451e-031 139.0980072
rwrist  7.062250077e-031 -0 -6.765880108
rhand  -7.920061211e-032 -33.2840004 9.303460121
rfingers  -90 -7.125020027 -90
rthumb  -92.93752616 -24.25625642 -97.11982154
rfemur  -9.553830147 16.44280052 0.5037620068
rtibia  -0 0 49.15570068
rfoot  -0 -19.97439957 -15.63440037
rtoes  5.373923086 19.29304026 -105.8922705
lfemur  -11.03600025 7.978199959 -14.95269966
ltibia  -0 0 44.2378006
lfoot  -0 -15.11240005 13.91240025
ltoes  -4.250644065 -19.5611806 -102.515957
109
root  8.946177715 39.55911051 -1.561066673 -160.197998 -71.96499634 155.4159851
lowerback  11.20020008 2.371210098 0.3131980002
upperback  2.587539911 3.098140001 0.5115479827
thorax  -3.581029892 1.489599943 -0.07732280344
lowerneck  -4.50880003 7.141530037 0.169174999
upperneck  12.66880035 10.15880013 -5.452320099
head  4.840370178 4.60284996 -1.134680033
lclavicle  0 -9.442270133e-015 7.951389973e-016
lhumerus  -0.9434319735 -7.614280224 75.58930206
lradius  2.971646012e-031 -1.907397184e-031 147.3049927
lwrist  -3.531125038e-031 -3.531125038e-031 2.841599941
lhand  -1.496451383e-031 -27.76390076 20.11240005
lfingers  90 7.125020027 -90
lthumb  89.89689403 5.08795885 91.16245106
rclavicle  0 -9.442270133e-015 7.951389973e-016
rhumerus  10.43939972 17.57620049 -72.85250092
rradius  -2.670989442e-031 2.309688169e-031 139.1490021
rwrist  7.062250077e-031 -1.765562519e-031 -7.587009907
rhand  -7.920061211e-032 -33.2840004 9.303460121
rfingers  -90 -7.125020027 -90
rthumb  -92.93752616 -24.25625642 -97.11982154
rfemur  -10.17230034 16.76609993 -0.2655340135
rtibia  -0 0 49.41320038
rfoot  -0 -18.70089912 -14.70660019
rtoes  5.373923086 19.29304026 -105.8922705
lfemur  -11.91359997 8.858070374 -14.84959984
ltibia  -0 0 46.04719925
lfoot  -0 -14.56159973 11.61909962
ltoes  -4.250644065 -19.5611806 -102.515957
110
root  8.861577792 39.61889012 -1.289204444 -160.0100098 -71.46600342 155.1740112
lowerback  11.84689999 2.446990013 0.4999800026
upperback  2.65534997 3.214109898 0.5131400228
thorax  -3.855159998 1.53926003 -0.2231740057
lowerneck  -4.798339844 7.170680046 0.2689149976
upperneck  12.52270031 10.24199963 -5.840929985
head  4.872680187 4.625070095 -1.253029943
lclavicle  0 -9.442270133e-015 7.951389973e-016
lhumerus  -0.2742620111 -7.745389938 74.81349945
lradius  2.976264873e-031 -1.900181949e-031 147.4440002
lwrist  -3.531125038e-031 -1.765562519e-031 3.061490059
lhand  -1.496451383e-031 -27.76390076 20.11240005
lfingers  90 7.125020027 -90
lthumb  89.89689403 5.08795885 91.16245106
rclavicle  0 -9.442270133e-015 7.951389973e-016
rhumerus  9.236789703 16.21509933 -72.16549683
rradius  -2.670021644e-031 2.310806884e-031 139.125
rwrist  7.062250077e-031 -3.531125038e-031 -8.86703968
rhand  -7.920061211e-032 -33.2840004 9.303460121
rfingers  -90 -7.125020027 -90
rthumb  -92.93752616 -24.25625642 -97.11982154
rfemur  -10.87119961 16.89220047 -1.36135006
rtibia  -0 0 49.87779999
rfoot  -0 -17.47389984 -13.30039978
rtoes  5.373923086 19.29304026 -105.8922705
lfemur  -12.92039967 9.6291399 -14.99050045
ltibia  -0 0 48.05379868
lfoot  -0 -12.97789955 9.538700104
ltoes  -4.250644065 -19.5611806 -102.515957
